<svg fill="none" height="22" viewBox="0 0 21 22" width="21" xmlns="http://www.w3.org/2000/svg"><path d="m13.4318 2.71733c-2.7356-2.6929972-4.33794-2.409902-6.73987.22576-2.97083.77042-3.46851 1.77605-4.02239 3.84212-2.482144 2.20961-2.936568 3.58899-1.29297 6.41689-.18578 3.1896.51144 4.3176 2.88366 5.4006 1.60081 2.3875 2.70507 3.083 5.42845 1.9829 1.44802 1.6073 2.52672 1.7586 5.13002.1145 2.4797.131 4.1054-2.1632 4.2327-4.7575 1.649-2.0216 2.1433-3.3036.6309-5.0713 1.0129-2.06583.8192-2.99012-1.1931-4.12643-.5304-2.95622-2.2803-3.63045-5.0574-4.02754z" fill="#aad9bb"/></svg>