<svg fill="none" height="35" viewBox="0 0 35 35" width="35" xmlns="http://www.w3.org/2000/svg"><path d="m12.8476 1.61377c-6.56859-1.408175-8.669.51445-9.74122 6.66206-3.663767 3.92727-3.454451 5.87967-2.332393 9.45087-1.590718 5.5937-.966578 8.0574 4.115993 10.6903 2.72062 4.8846 4.80944 5.8957 9.32962 5.2676 4.6057 2.0226 6.8895 2.0128 9.8783-2.169 3.6477 1.0139 5.3827.2244 7.6832-4.648 3.7851-2.1349 4.0316-7.0493 1.7836-11.0001.5369-4.5337.063-6.89105-3.8303-8.08132-.4439-4.00195-1.5979-5.18495-5.6365-4.97355-3.5591-3.86757-6.7763-3.22014-11.2503-1.19886z" fill="#f9f7c9"/></svg>